HIERARCHY
ROOT ui
{
	 OFFSET 0 0 0
	 CHANNELS 3 XPosition YPosition Z Position
	 EndSite
	 {
	 OFFSET 0 -1 0
	 }
}
ROOT li
{
	 OFFSET 0 0 0
	 CHANNELS 3 XPosition YPosition Z Position
	 EndSite
	 {
	 OFFSET 0 -1 0
	 }
}
ROOT ul
{
	 OFFSET 0 0 0
	 CHANNELS 3 XPosition YPosition Z Position
	 EndSite
	 {
	 OFFSET 0 -1 0
	 }
}
ROOT ll
{
	 OFFSET 0 0 0
	 CHANNELS 3 XPosition YPosition Z Position
	 EndSite
	 {
	 OFFSET 0 -1 0
	 }
}
ROOT tt
{
	 OFFSET 0 0 0
	 CHANNELS 3 XPosition YPosition Z Position
	 EndSite
	 {
	 OFFSET 0 -1 0
	 }
}
ROOT tb
{
	 OFFSET 0 0 0
	 CHANNELS 3 XPosition YPosition Z Position
	 EndSite
	 {
	 OFFSET 0 -1 0
	 }
}
ROOT td
{
	 OFFSET 0 0 0
	 CHANNELS 3 XPosition YPosition Z Position
	 EndSite
	 {
	 OFFSET 0 -1 0
	 }
}
ROOT v
{
	 OFFSET 0 0 0
	 CHANNELS 3 XPosition YPosition Z Position
	 EndSite
	 {
	 OFFSET 0 -1 0
	 }
}
ROOT bn
{
	 OFFSET 0 0 0
	 CHANNELS 3 XPosition YPosition Z Position
	 EndSite
	 {
	 OFFSET 0 -1 0
	 }
}
MOTION
Frames: 16
Frame Time: 0.002
-0.0031595590114593505	-5.871229767799378E-4	0		0.4433694763183594	-2.30370458984375	0		-1.085780029296875	-0.040248775482177736	0		-0.8256315307617188	-2.21988623046875	0		1.4512088623046875	-0.20887190246582032	0		3.262342529296875	0.09116175079345704	0		4.698064453125	0.13614622497558593	0		5.55155224609375	0.15972042846679688	0		-0.28453155517578127	5.9366611328125	0		
-0.07488145446777343	0.0011466480493545533	0		0.424912841796875	-2.2986259765625	0		-1.1444072265625	-0.03178872299194336	0		-0.7791674194335938	-2.220781982421875	0		1.440553955078125	-0.20380361938476563	0		3.277578125	0.09005941772460938	0		4.70738818359375	0.14225762939453124	0		5.56313134765625	0.15468775939941407	0		-0.3459854736328125	5.92522509765625	0		
-0.061673095703125	0.007758303165435791	0		0.4643031311035156	-2.29430810546875	0		-1.1283135986328126	-0.03431326675415039	0		-0.8016875610351563	-2.20876513671875	0		1.4467032470703125	-0.2029614562988281	0		3.31580224609375	0.09865086364746094	0		4.717583984375	0.14934568786621094	0		5.58395751953125	0.16318092346191407	0		-0.28923104858398435	5.938236328125	0		
-0.05577551651000977	0.007470626831054688	0		0.46836334228515625	-2.297523681640625	0		-1.0594046630859375	-0.034511707305908204	0		-0.725731689453125	-2.220024658203125	0		1.47969482421875	-0.19746798706054688	0		3.288733642578125	0.1020865478515625	0		4.7303779296875	0.14238587951660156	0		5.57467041015625	0.17259986877441405	0		-0.3009676208496094	5.929150390625	0		
-0.05725084686279297	2.8533199429512025E-4	0		0.4701174011230469	-2.301704345703125	0		-1.053786865234375	-0.034870967864990235	0		-0.7958878173828124	-2.216376953125	0		1.4582381591796876	-0.20426824951171876	0		3.286198974609375	0.09119154357910156	0		4.73108447265625	0.15057005310058594	0		5.578685546875	0.17291574096679688	0		-0.2617693176269531	5.9344150390625	0		
-0.051968475341796876	2.253199927508831E-5	0		0.4735404357910156	-2.304900390625	0		-1.048501708984375	-0.03521123504638672	0		-0.7195286865234375	-2.224606201171875	0		1.48352197265625	-0.20566943359375	0		3.3012939453125	0.07706167602539063	0		4.73717578125	0.13666783142089844	0		5.5830205078125	0.14377700805664062	0		-0.2910223693847656	5.928572265625	0		
-0.04705405044555664	-2.2469000518321992E-4	0		0.48954425048828126	-2.311249267578125	0		-1.1106302490234374	-0.03867656326293945	0		-0.7853583374023437	-2.216997802734375	0		1.461376953125	-0.21146107482910156	0		3.30129248046875	0.08412016296386719	0		4.7400546875	0.13479270935058593	0		5.58945263671875	0.15606410217285155	0		-0.28653680419921873	5.9283076171875	0		
-0.03849238204956055	0.0024942259788513182	0		0.48938787841796877	-2.298381103515625	0		-1.0290845947265626	-0.037953887939453125	0		-0.7047303466796875	-2.221240234375	0		1.4930015869140625	-0.20493316650390625	0		3.3208095703125	0.08392372131347656	0		4.7506708984375	0.1428058624267578	0		5.59560400390625	0.16832894897460937	0		-0.26727090454101565	5.93887060546875	0		
-0.03131987571716308	0.006244510173797607	0		0.49162649536132813	-2.300534912109375	0		-1.1038778076171876	-0.03123037528991699	0		-0.7744024658203125	-2.215559814453125	0		1.4842386474609375	-0.1968872833251953	0		3.31400341796875	0.09005685424804688	0		4.7547841796875	0.14288859558105468	0		5.59216015625	0.17393885803222656	0		-0.24457798767089844	5.93340576171875	0		
-0.03468777465820312	-8.594409823417664E-4	0		0.49141323852539065	-2.305647216796875	0		-1.0312119140625	-0.036349205017089846	0		-0.7016764526367187	-2.22565966796875	0		1.4839195556640625	-0.20094387817382814	0		3.348552490234375	0.07666441345214844	0		4.7544208984375	0.13701612854003906	0		5.59481982421875	0.1741448974609375	0		-0.24119195556640624	5.933201171875	0		
-0.03136296272277832	-0.0010332109928131103	0		0.4948560791015625	-2.3057939453125	0		-1.09493017578125	-0.0397358283996582	0		-0.7820810546875	-2.212818115234375	0		1.508240478515625	-0.2023024139404297	0		3.312051513671875	0.09116303253173828	0		4.75773876953125	0.1370876159667969	0		5.59719775390625	0.1743354949951172	0		-0.23817105102539063	5.93301708984375	0		
-0.02841732597351074	-0.0011881790161132812	0		0.4999455261230469	-2.302949951171875	0		-1.0879456787109374	-0.03699005889892578	0		-0.7681212158203125	-2.220144287109375	0		1.484122802734375	-0.20804931640625	0		3.33082958984375	0.07796435546875	0		4.75375341796875	0.14324089050292968	0		5.5963623046875	0.15729856872558592	0		-0.3026566162109375	5.9206884765625	0		
-0.018740934371948244	0.005588015079498291	0		0.4636711730957031	-2.299580322265625	0		-1.1083150634765624	-0.03388492202758789	0		-0.759365234375	-2.21438623046875	0		1.4928201904296876	-0.20019810485839845	0		3.350539306640625	0.08775533294677734	0		4.76532421875	0.14219102478027343	0		5.607548828125	0.16928962707519532	0		-0.2841890563964844	5.93034130859375	0		
0.060503849029541014	0.0035169429779052736	0		0.5090286560058593	-2.299212646484375	0		-1.0101074829101562	-0.03923134231567383	0		-0.7689447631835937	-2.20838330078125	0		1.4920416259765625	-0.20422251892089843	0		3.334837646484375	0.09098487854003906	0		4.76469384765625	0.15128678894042968	0		5.6027578125	0.1713636932373047	0		-0.23111212158203126	5.93258203125	0		
-0.04759543609619141	-0.001222422957420349	0		0.48004931640625	-2.300912841796875	0		-1.0811217041015626	-0.03746369934082031	0		-0.6881207275390625	-2.226483154296875	0		1.510951904296875	-0.20948249816894532	0		3.322654052734375	0.07916948699951172	0		4.76258154296875	0.14539500427246094	0		5.60765966796875	0.15756240844726563	0		-0.22934286499023437	5.93247412109375	0		
-0.019898420333862306	-0.0016286029815673828	0		0.5067540893554687	-2.30629052734375	0		-1.0064395141601563	-0.03947985076904297	0		-0.7253517456054688	-2.22610791015625	0		1.4818072509765625	-0.19714054870605469	0		3.344250732421875	0.07093932342529297	0		4.76917724609375	0.13739295959472655	0		5.6053974609375	0.17510946655273438	0		-0.22782258605957031	5.9323828125	0		
